<?xml version="1.0" encoding="utf-8"?>
<!-- Generator: Adobe Illustrator 17.0.0, SVG Export Plug-In . SVG Version: 6.00 Build 0)  -->
<!DOCTYPE svg PUBLIC "-//W3C//DTD SVG 1.1//EN" "http://www.w3.org/Graphics/SVG/1.1/DTD/svg11.dtd">
<svg version="1.1" id="Layer_1" xmlns="http://www.w3.org/2000/svg" xmlns:xlink="http://www.w3.org/1999/xlink" x="0px" y="0px"
	 width="386.552px" height="633px" viewBox="0 0 386.552 633" enable-background="new 0 0 386.552 633" xml:space="preserve">
<g>
	<path fill="#FFFFFF" d="M202.621,213.077v206.684L23.264,316.499L202.621,213.077 M203.764,211.1L20.976,316.5l182.788,105.237
		V211.1L203.764,211.1z"/>
</g>
<g>
	<path fill="#FFFFFF" d="M202.621,423.715v206.684L23.264,527.136L202.621,423.715 M203.764,421.737l-182.788,105.4l182.788,105.239
		V421.737L203.764,421.737z"/>
</g>
<g>
	<path fill="#FFFFFF" d="M188.886,421.768l-0.017-0.01l-0.017,0.01v-0.02L6.047,316.5l0.026-0.014l182.778-105.394v-0.02l0.017,0.01
		l0.017-0.01v0.02l182.806,105.41l-0.026,0.015L188.886,421.749V421.768z M188.886,211.129v210.578l182.736-105.208L188.886,211.129
		z M6.115,316.5l182.736,105.208V211.129L6.115,316.5z"/>
</g>
<g>
	<path fill="#FFFFFF" d="M6.063,316.529V105.832l0.026,0.015L188.902,211.1l-0.026,0.015L6.063,316.529z M6.098,105.891v210.579
		l182.736-105.37L6.098,105.891z"/>
</g>
<g>
	<path fill="#FFFFFF" d="M371.673,527.167l-0.026-0.016L188.834,421.737l0.026-0.015L371.673,316.47V527.167z M188.904,421.737
		l182.736,105.37V316.529L188.904,421.737z"/>
</g>
<g>
	<path fill="#FFFFFF" d="M188.886,211.129l-0.026-0.015L6.047,105.861l0.026-0.015L188.886,0.594V211.129z M6.115,105.861
		l182.736,105.208V0.653L6.115,105.861z"/>
</g>
<g>
	<path fill="#FFFFFF" d="M188.851,632.406V421.707l0.026,0.016l182.814,105.413l-0.026,0.015L188.851,632.406z M188.886,421.768
		v210.578l182.736-105.208L188.886,421.768z"/>
</g>
<g>
	<path fill="#FFFFFF" d="M188.851,211.129V0.594l0.026,0.015l182.814,105.253l-0.026,0.015L188.851,211.129z M188.886,0.653v210.417
		l182.736-105.208L188.886,0.653z"/>
</g>
<g>
	<path fill="#FFFFFF" d="M188.886,632.406l-0.026-0.016L6.047,527.136l0.026-0.015l182.813-105.415V632.406z M6.115,527.138
		l182.736,105.208V421.768L6.115,527.138z"/>
</g>
<g>
	<path fill="#FFFFFF" d="M204.907,423.715l179.358,103.421L204.907,630.399V423.715 M203.764,421.737v210.638l182.788-105.239
		L203.764,421.737L203.764,421.737z"/>
</g>
<g>
	<path fill="#FFFFFF" d="M204.907,2.599l179.356,103.262L204.907,209.124V2.599 M203.764,0.624V211.1l182.788-105.239L203.764,0.624
		L203.764,0.624z"/>
</g>
<g>
	<path fill="#FFFFFF" d="M202.621,2.599v206.525L23.265,105.861L202.621,2.599 M203.764,0.624L20.976,105.861L203.764,211.1V0.624
		L203.764,0.624z"/>
</g>
<g>
	<path fill="#FFFFFF" d="M22.118,107.837L201.476,211.1L22.118,314.523V107.837 M20.976,105.861v210.638l182.788-105.4
		L20.976,105.861L20.976,105.861z"/>
</g>
<g>
	<path fill="#FFFFFF" d="M204.907,213.077l179.358,103.421L204.907,419.762V213.077 M203.764,211.1v210.638L386.552,316.5
		L203.764,211.1L203.764,211.1z"/>
</g>
<g>
	<path fill="#FFFFFF" d="M385.41,318.476V525.16L206.052,421.739L385.41,318.476 M386.551,316.5L203.763,421.737l182.788,105.4
		V316.5L386.551,316.5z"/>
</g>
</svg>
