<?xml version="1.0" encoding="utf-8"?>
<!-- Generator: Adobe Illustrator 17.0.0, SVG Export Plug-In . SVG Version: 6.00 Build 0)  -->
<!DOCTYPE svg PUBLIC "-//W3C//DTD SVG 1.1//EN" "http://www.w3.org/Graphics/SVG/1.1/DTD/svg11.dtd">
<svg version="1.1" id="Layer_1" xmlns="http://www.w3.org/2000/svg" xmlns:xlink="http://www.w3.org/1999/xlink" x="0px" y="0px"
	 width="460.269px" height="108.108px" viewBox="0 0 460.269 108.108" enable-background="new 0 0 460.269 108.108"
	 xml:space="preserve">
<g>
	<polygon fill="#020202" points="33.602,60.451 50.245,70.033 50.245,60.451 50.245,50.854 	"/>
	<polygon fill="#020202" points="50.245,50.854 50.245,60.451 50.245,70.033 66.889,60.451 	"/>
	<polygon fill="#5D5D5D" points="50.258,70.033 66.901,79.63 66.901,70.033 66.901,60.451 	"/>
	<polygon fill="#898989" points="50.245,70.033 50.245,79.63 50.245,89.213 66.889,79.63 	"/>
	<polygon fill="#B8B8B8" points="33.602,79.63 50.245,89.213 50.245,79.63 50.245,70.033 	"/>
	<g>
		<path fill="#010101" d="M51.566,51.034v18.82l-16.331-9.403L51.566,51.034 M51.67,50.854l-16.644,9.597l16.644,9.582V50.854
			L51.67,50.854z"/>
	</g>
	<g>
		<path fill="#010101" d="M51.566,70.213v18.82L35.234,79.63L51.566,70.213 M51.67,70.033L35.026,79.63l16.644,9.583V70.033
			L51.67,70.033z"/>
	</g>
	<g>
		<path fill="#2E2F2D" d="M50.315,70.036l-0.002-0.001l-0.002,0.001v-0.002l-16.645-9.583l0.002-0.001l16.643-9.597v-0.002
			l0.002,0.001l0.002-0.001v0.002l16.645,9.598l-0.002,0.001l-16.643,9.582V70.036z M50.315,50.856V70.03l16.639-9.58L50.315,50.856
			z M33.673,60.451l16.639,9.58V50.856L33.673,60.451z"/>
	</g>
	<polygon fill="#5D5D5D" points="33.589,41.271 33.589,50.854 33.589,60.451 50.233,50.854 	"/>
	<g>
		<path fill="#5D5D5D" d="M33.668,60.453V41.268l0.002,0.001l16.646,9.584l-0.002,0.001L33.668,60.453z M33.671,41.274v19.174
			l16.639-9.594L33.671,41.274z"/>
	</g>
	<g>
		<path fill="#5D5D5D" d="M66.959,79.633l-0.002-0.001L50.31,70.033l0.002-0.001l16.646-9.584V79.633z M50.317,70.033l16.639,9.594
			V60.453L50.317,70.033z"/>
	</g>
	<polygon fill="#898989" points="33.602,41.271 50.245,50.854 50.245,41.271 50.245,31.689 	"/>
	<g>
		<path fill="#898989" d="M50.315,50.856l-0.002-0.001l-16.646-9.584l0.002-0.001l16.646-9.584V50.856z M33.673,41.271l16.639,9.58
			V31.691L33.673,41.271z"/>
	</g>
	<g>
		<path fill="#898989" d="M50.312,89.215V70.03l0.002,0.001L66.96,79.63l-0.002,0.001L50.312,89.215z M50.315,70.036V89.21
			l16.639-9.58L50.315,70.036z"/>
	</g>
	<polygon fill="#B8B8B8" points="50.245,31.689 50.245,41.271 50.245,50.854 66.889,41.271 	"/>
	<g>
		<path fill="#B8B8B8" d="M50.312,50.856v-19.17l0.002,0.001l16.646,9.584l-0.002,0.001L50.312,50.856z M50.315,31.691v19.159
			l16.639-9.58L50.315,31.691z"/>
	</g>
	<g>
		<path fill="#B8B8B8" d="M50.315,89.215l-0.002-0.001L33.667,79.63l0.002-0.001l16.646-9.598V89.215z M33.673,79.63l16.639,9.58
			V70.036L33.673,79.63z"/>
	</g>
	<g>
		<path fill="#010101" d="M51.774,70.213l16.331,9.417l-16.331,9.403V70.213 M51.67,70.033v19.18l16.644-9.583L51.67,70.033
			L51.67,70.033z"/>
	</g>
	<g>
		<path fill="#FFFFFF" d="M51.774,31.869l16.331,9.402l-16.331,9.403V31.869 M51.67,31.689v19.165l16.644-9.583L51.67,31.689
			L51.67,31.689z"/>
	</g>
	<g>
		<path fill="#010101" d="M51.566,31.869v18.805l-16.331-9.403L51.566,31.869 M51.67,31.689l-16.644,9.582l16.644,9.583V31.689
			L51.67,31.689z"/>
	</g>
	<g>
		<path fill="#010101" d="M35.13,41.451l16.331,9.403L35.13,60.271V41.451 M35.026,41.271v19.18l16.644-9.597L35.026,41.271
			L35.026,41.271z"/>
	</g>
	<g>
		<path fill="#010101" d="M51.774,51.034l16.331,9.417l-16.331,9.403V51.034 M51.67,50.854v19.18l16.644-9.582L51.67,50.854
			L51.67,50.854z"/>
	</g>
	<g>
		<path fill="#010101" d="M68.209,60.631v18.82l-16.331-9.417L68.209,60.631 M68.313,60.451L51.67,70.033l16.644,9.597V60.451
			L68.313,60.451z"/>
	</g>
</g>
<g>
	<g>
		<path fill="#FFFFFF" d="M107.899,48.924c-1.311-0.433-2.347-1.028-3.108-1.786c-0.76-0.758-1.14-1.678-1.14-2.76
			c0-1.056,0.38-1.966,1.14-2.728c0.76-0.762,1.682-1.143,2.768-1.143c1.068,0,1.989,0.381,2.762,1.143
			c0.417,0.407,0.708,0.861,0.873,1.364l-0.938,0.363c-0.139-0.372-0.365-0.714-0.677-1.026c-0.556-0.554-1.229-0.832-2.02-0.832
			s-1.466,0.278-2.026,0.832c-0.561,0.555-0.841,1.229-0.841,2.027c0,0.788,0.278,1.463,0.834,2.026
			c0.521,0.512,1.242,0.978,2.163,1.403c1.476,0.476,2.719,1.216,3.726,2.221c1.059,1.056,1.589,2.334,1.589,3.832
			c0,1.507-0.532,2.793-1.596,3.858c-1.064,1.065-2.347,1.598-3.85,1.598c-1.511,0-2.797-0.536-3.857-1.611
			c-0.86-0.849-1.373-1.836-1.538-2.962l0.977-0.351c0.104,0.996,0.53,1.862,1.276,2.597c0.869,0.866,1.916,1.299,3.14,1.299
			c1.225,0,2.271-0.433,3.14-1.299c0.868-0.866,1.303-1.909,1.303-3.13c0-1.212-0.434-2.251-1.303-3.117
			C109.935,49.981,109.002,49.374,107.899,48.924z"/>
	</g>
	<g>
		<path fill="#FFFFFF" d="M136.983,40.728v18.366h-1.043V40.728H136.983z"/>
	</g>
	<g>
		<path fill="#FFFFFF" d="M176.844,40.728v18.366h-1.042v-17.25l-7.127,9.313l-7.14-9.313v17.25h-1.043V40.728h1.511l6.671,8.703
			l6.657-8.703H176.844z"/>
	</g>
	<g>
		<path fill="#FFFFFF" d="M207.861,47.573c0.678,0.285,1.298,0.714,1.863,1.286c1.173,1.169,1.759,2.584,1.759,4.247
			c0,1.654-0.586,3.066-1.759,4.234c-0.981,0.978-2.175,1.564-3.583,1.753h-5.98V40.728h5.498c1.051,0,1.943,0.368,2.677,1.104
			c0.734,0.736,1.101,1.623,1.101,2.663c0,1.039-0.37,1.927-1.107,2.662C208.174,47.322,208.018,47.46,207.861,47.573z
			 M201.203,41.754v5.351h4.69c0.756-0.078,1.32-0.303,1.694-0.676c0.53-0.528,0.795-1.173,0.795-1.935
			c0-0.754-0.268-1.399-0.801-1.936s-1.179-0.805-1.935-0.805L201.203,41.754L201.203,41.754z M205.464,58.056
			c1.363,0,2.528-0.483,3.492-1.449c0.964-0.965,1.446-2.132,1.446-3.501c0-1.368-0.482-2.537-1.446-3.507
			c-0.964-0.969-2.129-1.455-3.492-1.455h-4.261v9.911H205.464z"/>
	</g>
	<g>
		<path fill="#FFFFFF" d="M235.484,40.728v18.366h-1.043V40.728H235.484z"/>
	</g>
	<g>
		<path fill="#FFFFFF" d="M274.716,43.228c1.846,1.84,2.769,4.059,2.769,6.657c0,2.607-0.923,4.83-2.769,6.67
			c-1.846,1.84-4.076,2.76-6.691,2.76c-2.606,0-4.832-0.921-6.677-2.76c-1.846-1.84-2.768-4.063-2.768-6.67
			c0-2.597,0.923-4.817,2.768-6.657c1.845-1.84,4.072-2.76,6.677-2.76C270.64,40.468,272.87,41.388,274.716,43.228z M268.026,41.52
			c-2.311,0-4.287,0.818-5.929,2.455c-1.642,1.637-2.462,3.606-2.462,5.91c0,2.312,0.821,4.287,2.462,5.924
			c1.642,1.637,3.618,2.455,5.929,2.455c2.319,0,4.299-0.818,5.941-2.455c1.641-1.637,2.463-3.611,2.463-5.924
			c0-2.303-0.821-4.273-2.463-5.91C272.325,42.339,270.345,41.52,268.026,41.52z"/>
	</g>
	<g>
		<path fill="#FFFFFF" d="M305.103,41.767v17.328h-1.029V41.767h-4.664v-1.039h10.357v1.039H305.103z"/>
	</g>
	<g>
		<path fill="#FFFFFF" d="M333.165,50.431v8.664h-1.042V40.728h1.042v8.664h9.433v-8.664h1.043v18.366h-1.043v-8.664H333.165z"/>
	</g>
	<g>
		<path fill="#FFFFFF" d="M368.139,40.728v18.366h-1.042V40.728H368.139z"/>
	</g>
	<g>
		<path fill="#FFFFFF" d="M393.141,40.728l12.247,17.107V40.728h1.042v18.366h-1.602L392.867,42.39v16.704h-1.043V40.728H393.141z"
			/>
	</g>
	<g>
		<path fill="#FFFFFF" d="M438.497,40.728l-4.782,6.897l8.052,11.469h-1.264l-7.452-10.612l-1.98,2.831v7.781h-1.042V40.728h1.042
			v8.794l6.163-8.794L438.497,40.728L438.497,40.728z"/>
	</g>
	<g>
		<path fill="#FFFFFF" d="M168.177,71.911l2.677,7.357h-0.439l-1.179-3.236h-2.552l-1.2,3.236h-0.444l2.708-7.357H168.177z
			 M169.085,75.621l-1.122-3.086l-1.127,3.086H169.085z"/>
	</g>
	<g>
		<path fill="#FFFFFF" d="M184.503,76.719h-1.378v2.55h-0.418v-7.357h1.936c0.564,0.077,1.042,0.31,1.436,0.703
			c0.47,0.472,0.705,1.037,0.705,1.696c0,0.666-0.235,1.234-0.705,1.701c-0.327,0.326-0.701,0.54-1.122,0.64l1.701,2.617h-0.512
			L184.503,76.719z M183.125,72.332v3.965h1.252c0.546,0,1.014-0.194,1.404-0.58c0.39-0.387,0.585-0.856,0.585-1.408
			c0-0.547-0.195-1.014-0.585-1.399c-0.39-0.385-0.858-0.578-1.404-0.578L183.125,72.332L183.125,72.332z"/>
	</g>
	<g>
		<path fill="#FFFFFF" d="M202.568,79.357c-1.027-0.01-1.903-0.38-2.631-1.108c-0.741-0.736-1.112-1.625-1.112-2.669
			c0-1.04,0.37-1.929,1.109-2.666c0.739-0.737,1.631-1.105,2.675-1.105c1.047,0,1.94,0.368,2.68,1.105
			c0.739,0.738,1.109,1.626,1.109,2.666c0,1.045-0.369,1.934-1.106,2.669c-0.536,0.534-1.15,0.874-1.842,1.02
			c0.257,0.07,0.576,0.223,0.955,0.463c0.257,0.139,0.522,0.228,0.793,0.265c0.372-0.01,0.576-0.219,0.611-0.625h0.417
			c-0.08,0.596-0.39,0.916-0.929,0.957c-0.442,0-0.856-0.116-1.242-0.349c-0.432-0.225-0.772-0.347-1.023-0.364
			c-0.233,0.017-0.407,0.078-0.522,0.182c-0.114,0.104-0.192,0.227-0.232,0.37c-0.04,0.142-0.062,0.23-0.066,0.265h-0.417
			C201.891,79.827,202.148,79.468,202.568,79.357z M202.61,72.228c-0.925,0-1.717,0.328-2.375,0.983
			c-0.658,0.656-0.987,1.445-0.987,2.367c0,0.926,0.329,1.717,0.987,2.373c0.658,0.656,1.449,0.983,2.375,0.983
			c0.929,0,1.722-0.328,2.38-0.983c0.658-0.656,0.987-1.447,0.987-2.373c0-0.923-0.329-1.712-0.987-2.367
			C204.333,72.557,203.539,72.228,202.61,72.228z"/>
	</g>
	<g>
		<path fill="#FFFFFF" d="M223.005,71.911h0.417v5.287c-0.077,0.562-0.311,1.038-0.705,1.431c-0.47,0.468-1.037,0.703-1.702,0.703
			c-0.668,0-1.237-0.234-1.707-0.703s-0.705-1.034-0.705-1.696v-5.021h0.418v5.021c0,0.545,0.194,1.011,0.585,1.399
			c0.39,0.389,0.859,0.583,1.409,0.583c0.55,0,1.018-0.194,1.407-0.583c0.388-0.388,0.582-0.854,0.582-1.399L223.005,71.911
			L223.005,71.911z"/>
	</g>
	<g>
		<path fill="#FFFFFF" d="M236.39,71.911v7.357h-0.418v-7.357H236.39z"/>
	</g>
	<g>
		<path fill="#FFFFFF" d="M250.768,72.328v6.941h-0.412v-6.941h-1.869v-0.416h4.15v0.416H250.768z"/>
	</g>
	<g>
		<path fill="#FFFFFF" d="M268.36,71.911v0.416h-3.273v3.054h3.273v0.416h-3.273v3.054h3.273v0.416h-3.69v-7.357L268.36,71.911
			L268.36,71.911z"/>
	</g>
	<g>
		<path fill="#FFFFFF" d="M286.695,78.098l0.319,0.281c-0.721,0.652-1.567,0.978-2.542,0.978c-1.047,0-1.939-0.367-2.675-1.101
			c-0.736-0.734-1.104-1.622-1.104-2.666c0-1.037,0.368-1.924,1.104-2.662c0.736-0.737,1.628-1.106,2.675-1.106
			c0.975,0,1.822,0.328,2.542,0.983l-0.319,0.281c-0.633-0.559-1.374-0.838-2.224-0.838c-0.925,0-1.716,0.326-2.371,0.978
			c-0.656,0.652-0.984,1.44-0.984,2.362c0,0.926,0.328,1.716,0.984,2.367c0.656,0.652,1.447,0.978,2.371,0.978
			C285.321,78.935,286.062,78.656,286.695,78.098z"/>
	</g>
	<g>
		<path fill="#FFFFFF" d="M301.061,72.328v6.941h-0.412v-6.941h-1.869v-0.416h4.149v0.416H301.061z"/>
	</g>
	<g>
		<path fill="#FFFFFF" d="M319.442,71.911h0.417v5.287c-0.077,0.562-0.312,1.038-0.705,1.431c-0.47,0.468-1.037,0.703-1.701,0.703
			c-0.668,0-1.236-0.234-1.707-0.703c-0.47-0.468-0.705-1.034-0.705-1.696v-5.021h0.417v5.021c0,0.545,0.195,1.011,0.585,1.399
			c0.39,0.389,0.859,0.583,1.409,0.583s1.018-0.194,1.407-0.583c0.388-0.388,0.582-0.854,0.582-1.399L319.442,71.911L319.442,71.911
			z"/>
	</g>
	<g>
		<path fill="#FFFFFF" d="M334.133,76.719h-1.378v2.55h-0.417v-7.357h1.937c0.564,0.077,1.042,0.31,1.436,0.703
			c0.47,0.472,0.704,1.037,0.704,1.696c0,0.666-0.234,1.234-0.704,1.701c-0.328,0.326-0.701,0.54-1.122,0.64l1.701,2.617h-0.511
			L334.133,76.719z M332.754,72.332v3.965h1.252c0.546,0,1.014-0.194,1.404-0.58c0.39-0.387,0.585-0.856,0.585-1.408
			c0-0.547-0.194-1.014-0.585-1.399c-0.39-0.385-0.858-0.578-1.404-0.578L332.754,72.332L332.754,72.332z"/>
	</g>
	<g>
		<path fill="#FFFFFF" d="M351.185,71.911l2.677,7.357h-0.438l-1.179-3.236h-2.552l-1.2,3.236h-0.443l2.709-7.357H351.185z
			 M352.093,75.621l-1.122-3.086l-1.127,3.086H352.093z"/>
	</g>
</g>
</svg>
