<?xml version="1.0" encoding="utf-8"?>
<!-- Generator: Adobe Illustrator 17.0.0, SVG Export Plug-In . SVG Version: 6.00 Build 0)  -->
<!DOCTYPE svg PUBLIC "-//W3C//DTD SVG 1.1//EN" "http://www.w3.org/Graphics/SVG/1.1/DTD/svg11.dtd">
<svg version="1.1" id="Layer_1" xmlns="http://www.w3.org/2000/svg" xmlns:xlink="http://www.w3.org/1999/xlink" x="0px" y="0px"
	 width="500px" height="539px" viewBox="0 0 500 539" enable-background="new 0 0 500 539" xml:space="preserve">
<polygon fill="#010101" points="120.093,217.662 246,290.151 246,217.662 246,145.061 "/>
<polygon fill="#010101" points="246,145.061 246,217.662 246,290.151 371.907,217.662 "/>
<polygon fill="#5C5C5C" points="246.093,290.151 372,362.752 372,290.151 372,217.662 "/>
<polygon fill="#898989" points="246,290.151 246,362.752 246,435.241 371.907,362.752 "/>
<polygon fill="#B7B7B8" points="120.093,362.752 246,435.241 246,362.752 246,290.151 "/>
<g>
	<path d="M255.987,146.423V288.79l-123.544-71.129L255.987,146.423 M256.774,145.061l-125.907,72.601l125.907,72.489V145.061
		L256.774,145.061z"/>
</g>
<g>
	<path d="M255.987,291.513V433.88l-123.544-71.129L255.987,291.513 M256.774,290.151l-125.907,72.601l125.907,72.49V290.151
		L256.774,290.151z"/>
</g>
<g>
	<path fill="#2D2E2D" d="M246.526,290.172l-0.012-0.007l-0.012,0.007v-0.014l-125.918-72.496l0.018-0.01l125.9-72.597v-0.014
		l0.012,0.007l0.012-0.007v0.014l125.919,72.608l-0.018,0.01l-125.901,72.486V290.172z M246.526,145.081V290.13l125.871-72.469
		L246.526,145.081z M120.631,217.662l125.871,72.469v-145.05L120.631,217.662z"/>
</g>
<polygon fill="#5C5C5C" points="120,72.571 120,145.061 120,217.662 245.907,145.061 "/>
<g>
	<path fill="#5C5C5C" d="M120.595,217.682V72.551l0.018,0.01l125.924,72.5l-0.018,0.01L120.595,217.682z M120.619,72.592v145.05
		l125.871-72.58L120.619,72.592z"/>
</g>
<g>
	<path fill="#5C5C5C" d="M372.432,362.772l-0.018-0.011l-125.924-72.61l0.018-0.01l125.924-72.5V362.772z M246.538,290.151
		l125.871,72.58V217.682L246.538,290.151z"/>
</g>
<polygon fill="#898989" points="120.093,72.571 246,145.061 246,72.571 246,0.082 "/>
<g>
	<path fill="#898989" d="M246.526,145.081l-0.018-0.01l-125.924-72.5l0.018-0.01L246.526,0.062V145.081z M120.631,72.571
		l125.871,72.469V0.102L120.631,72.571z"/>
</g>
<g>
	<path fill="#898989" d="M246.502,435.262V290.13l0.018,0.011l125.925,72.61l-0.018,0.01L246.502,435.262z M246.526,290.172v145.049
		l125.871-72.469L246.526,290.172z"/>
</g>
<polygon fill="#B7B7B8" points="246,0.082 246,72.571 246,145.061 371.907,72.571 "/>
<g>
	<path fill="#B7B7B8" d="M246.502,145.081V0.062l0.018,0.01l125.925,72.5l-0.018,0.01L246.502,145.081z M246.526,0.102V145.04
		l125.871-72.469L246.526,0.102z"/>
</g>
<g>
	<path fill="#B7B7B8" d="M246.526,435.262l-0.018-0.011l-125.924-72.5l0.018-0.01l125.924-72.611V435.262z M120.631,362.752
		l125.871,72.469V290.172L120.631,362.752z"/>
</g>
<g>
	<path d="M15.539,493.288c-1.902-0.628-3.404-1.491-4.507-2.59c-1.102-1.099-1.653-2.433-1.653-4.003
		c0-1.532,0.551-2.851,1.653-3.956s2.44-1.658,4.015-1.658c1.549,0,2.885,0.553,4.006,1.658c0.605,0.59,1.027,1.249,1.266,1.978
		l-1.36,0.527c-0.201-0.539-0.529-1.036-0.982-1.488c-0.806-0.803-1.783-1.206-2.929-1.206s-2.126,0.403-2.938,1.206
		c-0.813,0.805-1.219,1.783-1.219,2.939c0,1.143,0.403,2.122,1.209,2.938c0.756,0.742,1.801,1.419,3.137,2.035
		c2.141,0.691,3.943,1.764,5.404,3.221c1.536,1.532,2.305,3.385,2.305,5.557c0,2.185-0.772,4.05-2.315,5.595
		c-1.543,1.545-3.404,2.318-5.584,2.318c-2.192,0-4.056-0.778-5.593-2.336c-1.247-1.231-1.991-2.662-2.23-4.295l1.417-0.509
		c0.151,1.445,0.768,2.701,1.851,3.767c1.26,1.256,2.778,1.884,4.554,1.884s3.294-0.628,4.554-1.884
		c1.259-1.256,1.889-2.769,1.889-4.54c0-1.758-0.63-3.265-1.889-4.52C18.493,494.821,17.139,493.941,15.539,493.288z"/>
</g>
<g>
	<path d="M57.719,481.402v26.636h-1.512v-26.636H57.719z"/>
</g>
<g>
	<path d="M115.528,481.402v26.636h-1.511v-25.017l-10.336,13.507l-10.355-13.507v25.017h-1.512v-26.636h2.192l9.674,12.621
		l9.655-12.621H115.528z"/>
</g>
<g>
	<path d="M160.511,491.33c0.983,0.414,1.883,1.036,2.702,1.865c1.701,1.695,2.551,3.748,2.551,6.159c0,2.399-0.85,4.446-2.551,6.141
		c-1.423,1.419-3.155,2.268-5.196,2.543h-8.673v-26.636h7.974c1.524,0,2.818,0.534,3.883,1.601c1.065,1.067,1.597,2.354,1.597,3.862
		c0,1.507-0.536,2.794-1.606,3.861C160.964,490.965,160.738,491.166,160.511,491.33z M150.855,482.89v7.761h6.802
		c1.096-0.113,1.914-0.44,2.457-0.98c0.768-0.765,1.153-1.701,1.153-2.806c0-1.093-0.388-2.029-1.162-2.807s-1.71-1.168-2.806-1.168
		L150.855,482.89L150.855,482.89z M157.034,506.532c1.977,0,3.666-0.7,5.064-2.101c1.398-1.4,2.097-3.092,2.097-5.077
		c0-1.984-0.699-3.679-2.097-5.086c-1.398-1.406-3.087-2.11-5.064-2.11h-6.179v14.374H157.034z"/>
</g>
<g>
	<path d="M200.572,481.402v26.636h-1.512v-26.636H200.572z"/>
</g>
<g>
	<path d="M257.468,485.028c2.677,2.669,4.016,5.887,4.016,9.654c0,3.781-1.339,7.005-4.016,9.673
		c-2.677,2.669-5.911,4.003-9.703,4.003c-3.779,0-7.007-1.335-9.684-4.003s-4.015-5.893-4.015-9.673
		c0-3.767,1.339-6.986,4.015-9.654s5.905-4.003,9.684-4.003C251.557,481.025,254.791,482.359,257.468,485.028z M247.766,482.551
		c-3.351,0-6.217,1.187-8.598,3.561c-2.381,2.374-3.571,5.23-3.571,8.571c0,3.353,1.19,6.217,3.571,8.591s5.247,3.56,8.598,3.56
		c3.363,0,6.235-1.186,8.616-3.56c2.38-2.374,3.572-5.237,3.572-8.591c0-3.34-1.191-6.197-3.572-8.571
		C254.001,483.738,251.129,482.551,247.766,482.551z"/>
</g>
<g>
	<path d="M301.537,482.909v25.13h-1.493v-25.13h-6.764v-1.507h15.021v1.507H301.537z"/>
</g>
<g>
	<path d="M342.235,495.474v12.565h-1.511v-26.636h1.511v12.565h13.68v-12.565h1.512v26.636h-1.512v-12.565H342.235z"/>
</g>
<g>
	<path d="M392.956,481.402v26.636h-1.511v-26.636H392.956z"/>
</g>
<g>
	<path d="M429.216,481.402l17.761,24.809v-24.809h1.511v26.636h-2.324l-17.346-24.225v24.225h-1.512v-26.636H429.216z"/>
</g>
<g>
	<path d="M494.993,481.402l-6.935,10.003l11.677,16.633h-1.833l-10.808-15.39l-2.872,4.106v11.284h-1.511v-26.636h1.511v12.753
		l8.938-12.753L494.993,481.402L494.993,481.402z"/>
</g>
<g>
	<path d="M102.959,526.626l3.883,10.67h-0.636l-1.71-4.693h-3.701l-1.741,4.693H98.41l3.928-10.67H102.959z M104.276,532.006
		l-1.627-4.475l-1.635,4.475H104.276z"/>
</g>
<g>
	<path d="M126.635,533.598h-1.998v3.698h-0.606v-10.67h2.808c0.818,0.111,1.511,0.45,2.082,1.019
		c0.681,0.684,1.022,1.504,1.022,2.46c0,0.966-0.341,1.789-1.022,2.467c-0.474,0.473-1.017,0.783-1.627,0.928l2.467,3.796h-0.742
		L126.635,533.598z M124.637,527.237v5.751h1.816c0.792,0,1.471-0.281,2.036-0.841c0.565-0.561,0.848-1.242,0.848-2.042
		c0-0.794-0.283-1.471-0.848-2.029c-0.565-0.559-1.244-0.838-2.036-0.838L124.637,527.237L124.637,527.237z"/>
</g>
<g>
	<path d="M152.835,537.424c-1.489-0.015-2.76-0.551-3.815-1.607c-1.075-1.067-1.612-2.357-1.612-3.871
		c0-1.509,0.536-2.798,1.609-3.867c1.072-1.069,2.365-1.603,3.879-1.603c1.519,0,2.814,0.534,3.887,1.603
		c1.072,1.07,1.608,2.358,1.608,3.867c0,1.515-0.535,2.805-1.604,3.871c-0.777,0.775-1.668,1.268-2.672,1.479
		c0.373,0.101,0.835,0.324,1.385,0.672c0.373,0.201,0.757,0.33,1.15,0.385c0.54-0.015,0.835-0.317,0.886-0.906h0.605
		c-0.116,0.865-0.565,1.329-1.347,1.388c-0.641,0-1.241-0.168-1.801-0.506c-0.626-0.327-1.12-0.503-1.484-0.528
		c-0.338,0.025-0.59,0.113-0.757,0.264c-0.166,0.151-0.279,0.329-0.337,0.536c-0.058,0.206-0.09,0.334-0.095,0.385h-0.605
		C151.852,538.106,152.225,537.585,152.835,537.424z M152.896,527.086c-1.342,0-2.49,0.476-3.444,1.426
		c-0.954,0.951-1.431,2.095-1.431,3.433c0,1.343,0.477,2.49,1.431,3.441s2.102,1.426,3.444,1.426c1.347,0,2.498-0.475,3.451-1.426
		c0.954-0.951,1.431-2.098,1.431-3.441c0-1.338-0.477-2.483-1.431-3.433C155.394,527.562,154.243,527.086,152.896,527.086z"/>
</g>
<g>
	<path d="M182.474,526.626h0.605v7.667c-0.111,0.815-0.451,1.506-1.022,2.075c-0.681,0.679-1.504,1.019-2.468,1.019
		c-0.969,0-1.794-0.34-2.475-1.019s-1.022-1.499-1.022-2.46v-7.282h0.606v7.282c0,0.79,0.282,1.466,0.848,2.029
		c0.565,0.564,1.246,0.845,2.044,0.845s1.477-0.281,2.04-0.845c0.562-0.563,0.844-1.239,0.844-2.029L182.474,526.626
		L182.474,526.626z"/>
</g>
<g>
	<path d="M201.885,526.626v10.67h-0.606v-10.67H201.885z"/>
</g>
<g>
	<path d="M222.737,527.23v10.066h-0.598V527.23h-2.71v-0.604h6.018v0.604H222.737z"/>
</g>
<g>
	<path d="M248.25,526.626v0.604h-4.746v4.429h4.746v0.604h-4.746v4.429h4.746v0.604h-5.352v-10.67L248.25,526.626L248.25,526.626z"
		/>
</g>
<g>
	<path d="M274.841,535.598l0.462,0.408c-1.045,0.946-2.273,1.418-3.687,1.418c-1.518,0-2.812-0.532-3.879-1.596
		s-1.601-2.353-1.601-3.867c0-1.504,0.534-2.791,1.601-3.86c1.067-1.069,2.361-1.604,3.879-1.604c1.414,0,2.642,0.476,3.687,1.426
		l-0.462,0.407c-0.918-0.81-1.993-1.215-3.225-1.215c-1.342,0-2.488,0.473-3.439,1.419c-0.951,0.945-1.427,2.088-1.427,3.426
		c0,1.343,0.476,2.488,1.427,3.433c0.951,0.946,2.098,1.418,3.439,1.418C272.848,536.813,273.923,536.408,274.841,535.598z"/>
</g>
<g>
	<path d="M295.675,527.23v10.066h-0.598V527.23h-2.71v-0.604h6.017v0.604H295.675z"/>
</g>
<g>
	<path d="M322.333,526.626h0.605v7.667c-0.111,0.815-0.452,1.506-1.022,2.075c-0.681,0.679-1.504,1.019-2.467,1.019
		c-0.969,0-1.793-0.34-2.475-1.019c-0.681-0.679-1.022-1.499-1.022-2.46v-7.282h0.605v7.282c0,0.79,0.283,1.466,0.848,2.029
		c0.565,0.564,1.246,0.845,2.043,0.845s1.477-0.281,2.04-0.845c0.562-0.563,0.844-1.239,0.844-2.029v-7.282H322.333z"/>
</g>
<g>
	<path d="M343.638,533.598h-1.999v3.698h-0.605v-10.67h2.809c0.818,0.111,1.511,0.45,2.082,1.019
		c0.681,0.684,1.021,1.504,1.021,2.46c0,0.966-0.34,1.789-1.021,2.467c-0.475,0.473-1.017,0.783-1.627,0.928l2.467,3.796h-0.741
		L343.638,533.598z M341.639,527.237v5.751h1.816c0.792,0,1.471-0.281,2.036-0.841c0.566-0.561,0.848-1.242,0.848-2.042
		c0-0.794-0.282-1.471-0.848-2.029c-0.565-0.559-1.244-0.838-2.036-0.838L341.639,527.237L341.639,527.237z"/>
</g>
<g>
	<path d="M368.368,526.626l3.883,10.67h-0.635l-1.71-4.693h-3.701l-1.741,4.693h-0.643l3.929-10.67H368.368z M369.685,532.006
		l-1.627-4.475l-1.634,4.475H369.685z"/>
</g>
<g>
	<path d="M257.561,291.513l123.544,71.238L257.561,433.88V291.513 M256.774,290.151v145.09l125.907-72.49L256.774,290.151
		L256.774,290.151z"/>
</g>
<g>
	<path fill="#FFFFFF" d="M257.561,1.443l123.543,71.128L257.561,143.7V1.443 M256.774,0.082v144.979l125.907-72.49L256.774,0.082
		L256.774,0.082z"/>
</g>
<g>
	<path d="M255.987,1.443V143.7L132.444,72.571L255.987,1.443 M256.774,0.082L130.867,72.571l125.907,72.49V0.082L256.774,0.082z"/>
</g>
<g>
	<path d="M131.654,73.932l123.544,71.129L131.654,216.3V73.932 M130.867,72.571v145.09l125.907-72.601L130.867,72.571
		L130.867,72.571z"/>
</g>
<g>
	<path d="M257.561,146.423l123.544,71.238L257.561,288.79V146.423 M256.774,145.061v145.09l125.907-72.489L256.774,145.061
		L256.774,145.061z"/>
</g>
<g>
	<path d="M381.894,219.023V361.39L258.35,290.152L381.894,219.023 M382.68,217.662l-125.907,72.489l125.907,72.601V217.662
		L382.68,217.662z"/>
</g>
</svg>
